#define full_width 16
#define full_height 16
static char full_bits[] = {
  0xFF, 0xFF, 0x01, 0x80, 0x3D, 0xBC, 0x0D, 0xB0, 0x15, 0xA8, 0x25, 0xA4, 
  0x41, 0x82, 0x81, 0x81, 0x81, 0x81, 0x41, 0x82, 0x25, 0xA4, 0x15, 0xA8, 
  0x0D, 0xB0, 0x3D, 0xBC, 0x01, 0x80, 0xFF, 0xFF, };
